<svg width="150" height="90" viewBox="0 0 150 90" fill="none" xmlns="http://www.w3.org/2000/svg">
<path fill-rule="evenodd" clip-rule="evenodd" d="M0 30C0 13.4315 13.4315 0 30 0H60V30H30V60H0V30ZM120 0H90V30H60.0012C60.0012 33.9398 59.2252 37.841 57.7175 41.481C56.2098 45.1209 53.9999 48.4282 51.214 51.214C48.4282 53.9999 45.1209 56.2098 41.481 57.7175C37.841 59.2252 33.9398 60.0012 30 60.0012V90C37.8793 90 45.6815 88.4481 52.961 85.4328C60.2405 82.4175 66.8549 77.9979 72.4264 72.4264C77.9979 66.8549 82.4175 60.2405 85.4328 52.961C88.4481 45.6815 90 37.8793 90 30H120V60H90V90H120C136.569 90 150 76.5685 150 60V30H120V0Z" fill="white"/>
</svg>